<svg width="120" height="120" viewBox="0 0 120 120" fill="none" xmlns="http://www.w3.org/2000/svg">
<path fill-rule="evenodd" clip-rule="evenodd" d="M101.377 31.5C103.979 31.5 105.889 33.9456 105.257 36.4701L96.7574 70.4701C96.3122 72.2508 94.7123 73.5 92.8769 73.5H42.1231C40.2876 73.5 38.6877 72.2508 38.2425 70.4701L29.7425 36.4701C29.1113 33.9456 31.0208 31.5 33.6231 31.5H101.377Z" fill="white"/>
<path d="M40.4466 91.6557C40.8484 93.2631 42.4772 94.2403 44.0846 93.8385C45.692 93.4367 46.6693 91.8079 46.2674 90.2005L40.4466 91.6557ZM25.5 19.5L28.4104 18.7724C28.0766 17.4369 26.8766 16.5 25.5 16.5V19.5ZM13.5 16.5C11.8431 16.5 10.5 17.8431 10.5 19.5C10.5 21.1569 11.8431 22.5 13.5 22.5V16.5ZM46.0603 88.5C44.4035 88.5 43.0603 89.8431 43.0603 91.5C43.0603 93.1569 44.4035 94.5 46.0603 94.5V88.5ZM90.4397 94.5C92.0965 94.5 93.4397 93.1569 93.4397 91.5C93.4397 89.8431 92.0965 88.5 90.4397 88.5V94.5ZM46.2674 90.2005L28.4104 18.7724L22.5896 20.2276L40.4466 91.6557L46.2674 90.2005ZM25.5 16.5H13.5V22.5H25.5V16.5ZM46.0603 94.5H90.4397V88.5H46.0603V94.5Z" fill="white"/>
<path d="M40.5 91.7301C42.3564 90.6583 44.6436 90.6583 46.5 91.7301L48.2942 92.766C50.1506 93.8378 51.2942 95.8186 51.2942 97.9621V100.034C51.2942 102.178 50.1506 104.158 48.2942 105.23L46.5 106.266C44.6436 107.338 42.3564 107.338 40.5 106.266L38.7058 105.23C36.8494 104.158 35.7058 102.178 35.7058 100.034V97.9621C35.7058 95.8186 36.8494 93.8378 38.7058 92.766L40.5 91.7301Z" fill="white" stroke="white" stroke-width="6" stroke-linecap="round" stroke-linejoin="round"/>
<path d="M90 91.7301C91.8564 90.6583 94.1436 90.6583 96 91.7301L97.7942 92.766C99.6506 93.8378 100.794 95.8186 100.794 97.9621V100.034C100.794 102.178 99.6506 104.158 97.7942 105.23L96 106.266C94.1436 107.338 91.8564 107.338 90 106.266L88.2058 105.23C86.3494 104.158 85.2058 102.178 85.2058 100.034V97.9621C85.2058 95.8186 86.3494 93.8378 88.2058 92.766L90 91.7301Z" fill="white" stroke="white" stroke-width="6" stroke-linecap="round" stroke-linejoin="round"/>
</svg>
