<svg width="18" height="19" viewBox="0 0 18 19" fill="none" xmlns="http://www.w3.org/2000/svg">
<path fill-rule="evenodd" clip-rule="evenodd" d="M0.322805 0.822805C0.75321 0.392398 1.45104 0.392399 1.88145 0.822806L8.8443 7.78564L15.8071 0.822806C16.2375 0.392399 16.9353 0.392398 17.3657 0.822805C17.7961 1.25321 17.7961 1.95104 17.3657 2.38145L10.4029 9.3443L17.3656 16.307C17.796 16.7375 17.796 17.4352 17.3656 17.8656C16.9352 18.296 16.2375 18.296 15.807 17.8656L8.8443 10.9029L1.88153 17.8656C1.45112 18.296 0.753286 18.296 0.322881 17.8656C-0.107526 17.4352 -0.107526 16.7375 0.322881 16.307L7.28564 9.3443L0.322806 2.38145C-0.107602 1.95104 -0.107602 1.25321 0.322805 0.822805Z" fill="#FFCB00"/>
</svg>
