<svg width="120" height="120" viewBox="0 0 120 120" fill="none" xmlns="http://www.w3.org/2000/svg">
<path fill-rule="evenodd" clip-rule="evenodd" d="M13.2187 97.6875C13.2187 98.1017 13.5544 98.4375 13.9687 98.4375V98.4375L73.7999 98.4375C80.1012 98.4375 86.2148 96.293 91.1352 92.3566L103.311 82.6158V82.6158C104.928 81.322 105.191 78.9621 103.897 77.3449V77.3449C102.603 75.7277 100.243 75.4655 98.6261 76.7592V76.7592L87.0339 86.033C86.9068 86.1346 86.7187 86.0442 86.7187 85.8815V85.8815C86.7187 85.7744 86.6318 85.6875 86.5247 85.6875H82.9687L52.2187 85.6875C50.976 85.6875 49.9687 84.6801 49.9687 83.4375V83.4375C49.9687 82.1949 50.976 81.1875 52.2187 81.1875L67.2187 81.1875V81.1875C69.2897 81.1875 70.9687 79.5086 70.9687 77.4375V77.4375C70.9687 75.3664 69.2897 73.6875 67.2187 73.6875V73.6875L48.9853 73.6875C43.5067 73.6875 38.1508 75.3092 33.5923 78.3481L32.4736 79.0939C31.1595 79.97 29.6154 80.4375 28.036 80.4375H13.9687V80.4375C13.5544 80.4375 13.2187 80.7733 13.2187 81.1875L13.2187 97.6875Z" fill="#ACD5F4"/>
<path d="M55.9108 39.0655L56.4461 37.1385L56.4461 37.1385L55.9108 39.0655ZM60.4187 40.3177L60.9892 38.4008C60.9775 38.3973 60.9657 38.3939 60.9539 38.3907L60.4187 40.3177ZM64.1732 41.4351L64.7437 39.5182L64.7437 39.5182L64.1732 41.4351ZM51.2187 48.8854C51.2187 47.7808 50.3232 46.8854 49.2187 46.8854C48.1141 46.8854 47.2187 47.7808 47.2187 48.8854H51.2187ZM67.5187 32.1146C67.5187 33.2192 68.4141 34.1146 69.5187 34.1146C70.6232 34.1146 71.5187 33.2192 71.5187 32.1146H67.5187ZM57.7187 23C57.7187 24.1046 58.6141 25 59.7187 25C60.8232 25 61.7187 24.1046 61.7187 23H57.7187ZM61.7187 19.5C61.7187 18.3954 60.8232 17.5 59.7187 17.5C58.6141 17.5 57.7187 18.3954 57.7187 19.5H61.7187ZM57.7187 61.5C57.7187 62.6046 58.6141 63.5 59.7187 63.5C60.8232 63.5 61.7187 62.6046 61.7187 61.5L57.7187 61.5ZM61.7187 58C61.7187 56.8954 60.8232 56 59.7187 56C58.6141 56 57.7187 56.8954 57.7187 58L61.7187 58ZM60.7687 21H58.1007V25H60.7687V21ZM57.9687 60L61.7605 60V56L57.9687 56V60ZM55.3755 40.9926L59.8834 42.2447L60.9539 38.3907L56.4461 37.1385L55.3755 40.9926ZM59.8482 42.2346L63.6027 43.352L64.7437 39.5182L60.9892 38.4008L59.8482 42.2346ZM51.2187 49.25V48.8854H47.2187V49.25H51.2187ZM67.5187 31.75V32.1146H71.5187V31.75H67.5187ZM72.2187 49.5419C72.2187 44.915 69.1784 40.8381 64.7437 39.5182L63.6027 43.352C66.3412 44.1671 68.2187 46.6847 68.2187 49.5419H72.2187ZM47.9187 31.182C47.9187 35.7558 50.9685 39.7684 55.3755 40.9926L56.4461 37.1385C53.7704 36.3952 51.9187 33.959 51.9187 31.182H47.9187ZM61.7605 60C67.5364 60 72.2187 55.3177 72.2187 49.5419H68.2187C68.2187 53.1086 65.3273 56 61.7605 56V60ZM57.9687 56C54.2407 56 51.2187 52.9779 51.2187 49.25H47.2187C47.2187 55.1871 52.0316 60 57.9687 60V56ZM60.7687 25C64.4966 25 67.5187 28.0221 67.5187 31.75H71.5187C71.5187 25.8129 66.7057 21 60.7687 21V25ZM58.1007 21C52.4773 21 47.9187 25.5586 47.9187 31.182H51.9187C51.9187 27.7678 54.6864 25 58.1007 25V21ZM61.7187 23V19.5H57.7187V23H61.7187ZM61.7187 61.5V58L57.7187 58V61.5L61.7187 61.5Z" fill="#ACD5F4"/>
</svg>
