<svg width="120" height="120" viewBox="0 0 120 120" fill="none" xmlns="http://www.w3.org/2000/svg">
<path fill-rule="evenodd" clip-rule="evenodd" d="M12 78.0824V53.9176C12.4925 53.972 12.993 54 13.5 54C20.9558 54 27 47.9558 27 40.5C27 39.993 26.972 39.4925 26.9176 39H27.0165C33.9758 39 40.9053 38.0919 47.6295 36.2988L72.3705 29.7012C79.0947 27.9081 86.0242 27 92.9835 27H93.0824C93.0279 27.4925 93 27.993 93 28.5C93 35.9558 99.0442 42 106.5 42C107.007 42 107.507 41.972 108 41.9176V66.0824C107.507 66.0279 107.007 66 106.5 66C99.0442 66 93 72.0442 93 79.5C93 80.007 93.0279 80.5075 93.0824 81H92.9835C86.0242 81 79.0947 81.9081 72.3705 83.7012L47.6295 90.2988C40.9053 92.0919 33.9758 93 27.0165 93H26.9176C26.972 92.5075 27 92.007 27 91.5C27 84.0442 20.9558 78 13.5 78C12.993 78 12.4925 78.0279 12 78.0824ZM67.4759 47.4899C63.2721 44.2539 57.4164 44.2539 53.2126 47.4899C50.3375 49.7032 48.6529 53.1259 48.6529 56.7542V63.2458C48.6529 66.8741 50.3375 70.2968 53.2126 72.51C57.4164 75.7461 63.2721 75.7461 67.4759 72.51C70.351 70.2968 72.0356 66.8741 72.0356 63.2458V56.7542C72.0356 53.1259 70.351 49.7032 67.4759 47.4899ZM29.1228 61.83C30.524 60.7513 32.476 60.7513 33.8772 61.83C34.8356 62.5677 35.3971 63.7086 35.3971 64.9181V67.0819C35.3971 68.2914 34.8356 69.4323 33.8772 70.17C32.476 71.2487 30.524 71.2487 29.1228 70.17C28.1644 69.4323 27.6029 68.2914 27.6029 67.0819V64.9181C27.6029 63.7086 28.1644 62.5677 29.1228 61.83ZM90.8772 49.83C89.476 48.7513 87.524 48.7513 86.1228 49.83C85.1644 50.5677 84.6029 51.7086 84.6029 52.9181V55.0819C84.6029 56.2914 85.1644 57.4323 86.1228 58.17C87.524 59.2487 89.476 59.2487 90.8772 58.17C91.8356 57.4323 92.3971 56.2914 92.3971 55.0819V52.9181C92.3971 51.7086 91.8356 50.5677 90.8772 49.83Z" fill="#ACD5F4"/>
<path d="M12 41C12 39.8954 12.8954 39 14 39H27.0165C33.9758 39 40.9053 38.0919 47.6295 36.2988L72.3705 29.7012C79.0947 27.9081 86.0242 27 92.9835 27H106C107.105 27 108 27.8954 108 29V79C108 80.1046 107.105 81 106 81H92.9835C86.0242 81 79.0947 81.9081 72.3705 83.7012L47.6295 90.2988C40.9053 92.0919 33.9758 93 27.0165 93H14C12.8954 93 12 92.1046 12 91V41Z" stroke="#ACD5F4" stroke-width="5" stroke-linecap="round" stroke-linejoin="round"/>
</svg>
