<svg width="24" height="21" viewBox="0 0 24 21" fill="none" xmlns="http://www.w3.org/2000/svg">
<path d="M21.6068 17.2306C22.0782 17.2308 22.5314 17.4124 22.8726 17.7377C23.2138 18.063 23.4167 18.5071 23.4394 18.978C23.462 19.4488 23.3026 19.9103 22.9943 20.2669C22.6859 20.6235 22.2522 20.8477 21.783 20.8932L21.6068 20.9018H2.02701C1.55561 20.9015 1.10236 20.72 0.761194 20.3946C0.420026 20.0693 0.21709 19.6252 0.194436 19.1544C0.171782 18.6835 0.331147 18.222 0.639508 17.8654C0.947869 17.5089 1.38159 17.2846 1.85079 17.2391L2.02701 17.2306H21.6068ZM21.6068 8.66442C22.0936 8.66442 22.5605 8.85781 22.9047 9.20205C23.249 9.54629 23.4424 10.0132 23.4424 10.5C23.4424 10.9869 23.249 11.4537 22.9047 11.798C22.5605 12.1422 22.0936 12.3356 21.6068 12.3356H2.02701C1.54018 12.3356 1.07328 12.1422 0.729042 11.798C0.3848 11.4537 0.191406 10.9869 0.191406 10.5C0.191406 10.0132 0.3848 9.54629 0.729042 9.20205C1.07328 8.85781 1.54018 8.66442 2.02701 8.66442H21.6068ZM21.6068 0.0982666C22.0936 0.0982666 22.5605 0.29166 22.9047 0.635902C23.249 0.980145 23.4424 1.44704 23.4424 1.93387C23.4424 2.4207 23.249 2.8876 22.9047 3.23184C22.5605 3.57608 22.0936 3.76947 21.6068 3.76947H2.02701C1.54018 3.76947 1.07328 3.57608 0.729042 3.23184C0.3848 2.8876 0.191406 2.4207 0.191406 1.93387C0.191406 1.44704 0.3848 0.980145 0.729042 0.635902C1.07328 0.29166 1.54018 0.0982666 2.02701 0.0982666H21.6068Z" fill="#FFA809"/>
</svg>
