<svg width="23" height="24" viewBox="0 0 23 24" fill="none" xmlns="http://www.w3.org/2000/svg">
<path d="M20.8964 4.76634C21.2866 4.34791 21.4946 3.79161 21.4746 3.21982C21.4546 2.64803 21.2084 2.10759 20.7899 1.71739C20.3715 1.32719 19.8152 1.1192 19.2434 1.13917C18.6716 1.15914 18.1312 1.40543 17.741 1.82386L2.04775 18.6528C1.65755 19.0712 1.44956 19.6275 1.46953 20.1993C1.4895 20.7711 1.73579 21.3115 2.15422 21.7017C2.57266 22.0919 3.12896 22.2999 3.70075 22.28C4.27254 22.26 4.81298 22.0137 5.20317 21.5953L20.8964 4.76634Z" fill="#FFA809"/>
<path d="M2.04794 4.76634C1.65774 4.34791 1.44975 3.79161 1.46972 3.21982C1.48969 2.64803 1.73598 2.10759 2.15441 1.71739C2.57285 1.32719 3.12915 1.1192 3.70094 1.13917C4.27273 1.15914 4.81317 1.40543 5.20336 1.82386L20.8966 18.6528C21.2868 19.0712 21.4948 19.6275 21.4748 20.1993C21.4548 20.7711 21.2085 21.3115 20.7901 21.7017C20.3717 22.0919 19.8154 22.2999 19.2436 22.28C18.6718 22.26 18.1314 22.0137 17.7412 21.5953L2.04794 4.76634Z" fill="#FFA809"/>
</svg>
