<svg width="120" height="120" viewBox="0 0 120 120" fill="none" xmlns="http://www.w3.org/2000/svg">
<path d="M37.4502 58.9596C36.8882 61.6337 35.16 63.9164 32.7386 65.1828C30.0835 66.5715 26.9165 66.5715 24.2614 65.1828C21.84 63.9164 20.1118 61.6337 19.5498 58.9596L19.355 58.0325C18.7766 55.2803 19.3973 52.412 21.0618 50.1452L21.3773 49.7154C23.0422 47.4481 25.6871 46.1089 28.5 46.1089C31.3129 46.1089 33.9578 47.4481 35.6227 49.7154L35.9382 50.1452C37.6027 52.412 38.2234 55.2803 37.645 58.0325L37.4502 58.9596Z" fill="#ACD5F4"/>
<path d="M12 84.1997C12 85.7461 13.2536 86.9997 14.8 86.9997H27.8909C28.5473 81.4624 31.4595 76.4841 35.8484 73.1928C30.0102 71.6687 23.8132 71.9916 18.1269 74.1616C14.4375 75.5695 12 79.1087 12 83.0576V84.1997Z" fill="#ACD5F4"/>
<path d="M105.2 87H92.1091C91.4528 81.4627 88.5407 76.4844 84.1519 73.1931C89.9901 71.6691 96.1869 71.992 101.873 74.1619C105.562 75.5698 108 79.109 108 83.0579V84.2C108 85.7464 106.746 87 105.2 87Z" fill="#ACD5F4"/>
<path d="M82.5498 58.9599C83.1118 61.634 84.84 63.9167 87.2614 65.1831C89.9165 66.5718 93.0835 66.5718 95.7386 65.1831C98.16 63.9167 99.8882 61.634 100.45 58.9599L100.645 58.0328C101.223 55.2806 100.603 52.4124 98.9382 50.1455L98.6227 49.7157C96.9578 47.4484 94.3129 46.1092 91.5 46.1092C88.6871 46.1092 86.0422 47.4484 84.3773 49.7157L84.0618 50.1455C82.3973 52.4124 81.7766 55.2806 82.355 58.0328L82.5498 58.9599Z" fill="#ACD5F4"/>
<path d="M83.7 96H36.3C33.649 96 31.5 93.8509 31.5 91.2V89.3893C31.5 82.5343 35.7404 76.3939 42.151 73.966C53.6517 69.6102 66.3483 69.6102 77.849 73.966C84.2596 76.3939 88.5 82.5343 88.5 89.3893V91.2C88.5 93.8509 86.351 96 83.7 96Z" fill="#ACD5F4"/>
<path d="M52.712 58.6169C57.2812 60.9887 62.7188 60.9887 67.288 58.6169C71.4905 56.4354 74.4949 52.4861 75.4758 47.8538L75.7828 46.404C76.7896 41.6493 75.7112 36.6911 72.8206 32.784L72.3252 32.1144C69.434 28.2066 64.861 25.9014 60 25.9014C55.139 25.9014 50.5659 28.2066 47.6748 32.1144L47.1794 32.784C44.2888 36.6911 43.2104 41.6493 44.2172 46.404L44.5242 47.8538C45.5051 52.4861 48.5095 56.4354 52.712 58.6169Z" fill="#ACD5F4"/>
</svg>
